<?xml version="1.0" encoding="UTF-8" standalone="no"?>
<!-- Created with Inkscape (http://www.inkscape.org/) -->

<svg
   width="52.91666"
   height="39.687508"
   viewBox="0 0 52.91666 39.687508"
   version="1.1"
   id="svg1"
   xml:space="preserve"
   inkscape:version="1.4.3 (fcd0343856, 2026-01-01)"
   sodipodi:docname="logo.svg"
   xmlns:inkscape="http://www.inkscape.org/namespaces/inkscape"
   xmlns:sodipodi="http://sodipodi.sourceforge.net/DTD/sodipodi-0.dtd"
   xmlns="http://www.w3.org/2000/svg"
   xmlns:svg="http://www.w3.org/2000/svg"><sodipodi:namedview
     id="namedview1"
     pagecolor="#ffffff"
     bordercolor="#000000"
     borderopacity="0.25"
     inkscape:showpageshadow="2"
     inkscape:pageopacity="0.0"
     inkscape:pagecheckerboard="0"
     inkscape:deskcolor="#d1d1d1"
     inkscape:document-units="px"
     inkscape:zoom="8.5701342"
     inkscape:cx="16.3358"
     inkscape:cy="13.943772"
     inkscape:window-width="1854"
     inkscape:window-height="1011"
     inkscape:window-x="66"
     inkscape:window-y="32"
     inkscape:window-maximized="1"
     inkscape:current-layer="layer1"
     showgrid="true"><inkscape:grid
       id="grid18"
       units="px"
       originx="-105.83334"
       originy="-72.760411"
       spacingx="6.6145834"
       spacingy="6.6145834"
       empcolor="#0099e5"
       empopacity="0.30196078"
       color="#0099e5"
       opacity="0.14901961"
       empspacing="5"
       enabled="true"
       visible="true" /></sodipodi:namedview><defs
     id="defs1"><rect
       x="211.97604"
       y="356.28745"
       width="332.93414"
       height="59.281437"
       id="rect1" /></defs><g
     inkscape:label="Layer 1"
     inkscape:groupmode="layer"
     id="layer1"
     transform="translate(-186.77022,-177.47192)"><path
       id="path47"
       style="fill:#d5e5ff;stroke-width:12;stroke-linecap:round;stroke-linejoin:round;paint-order:stroke markers fill"
       d="M 186.77022 177.47192 L 193.38545 184.08715 L 199.99874 184.08715 L 206.61397 190.70044 L 213.2292 197.31567 L 219.84249 197.31567 L 213.2292 190.70044 L 206.61397 184.08715 L 199.99874 177.47192 L 193.38545 177.47192 L 186.77022 177.47192 z M 219.84249 177.47192 L 226.45772 184.08715 L 233.07295 184.08715 L 226.45772 177.47192 L 219.84249 177.47192 z M 213.2292 184.08715 L 219.84249 190.70044 L 226.45772 190.70044 L 219.84249 184.08715 L 213.2292 184.08715 z M 226.45772 203.9309 L 233.07295 210.54419 L 239.68624 210.54419 L 233.07295 203.9309 L 226.45772 203.9309 z " /><path
       id="path44"
       style="fill:#0044aa;stroke-width:12;stroke-linecap:round;stroke-linejoin:round;paint-order:stroke markers fill"
       d="M 186.77022 177.47192 L 186.77022 183.00708 L 186.77022 184.08715 L 193.38545 190.70044 L 193.38545 196.23755 L 193.38545 197.31567 L 193.38545 202.85083 L 193.38545 203.9309 L 193.38545 209.46606 L 193.38545 210.54419 L 199.99874 217.15942 L 199.99874 210.54419 L 199.99874 203.9309 L 199.99874 197.31567 L 199.99874 190.70044 L 193.38545 184.08715 L 186.77022 177.47192 z M 219.84249 177.47192 L 219.84249 183.00708 L 219.84249 184.08715 L 226.45772 190.70044 L 226.45772 184.08715 L 219.84249 177.47192 z M 213.2292 184.08715 L 213.2292 189.62231 L 213.2292 190.70044 L 219.84249 197.31567 L 219.84249 202.85083 L 219.84249 203.9309 L 219.84249 209.46606 L 219.84249 210.54419 L 226.45772 217.15942 L 226.45772 210.54419 L 226.45772 203.9309 L 226.45772 197.31567 L 219.84249 190.70044 L 213.2292 184.08715 z M 206.61397 190.70044 L 206.61397 196.23755 L 206.61397 197.31567 L 213.2292 203.9309 L 213.2292 197.31567 L 206.61397 190.70044 z " /><path
       id="rect18"
       style="fill:#5599ff;stroke-width:1.81195;stroke-linecap:round;stroke-linejoin:round;paint-order:stroke markers fill"
       d="M 193.38545 184.08715 L 193.38545 190.70044 L 199.99874 190.70044 L 199.99874 197.31567 L 199.99874 203.9309 L 199.99874 210.54419 L 199.99874 217.15942 L 206.61397 217.15942 L 206.61397 210.54419 L 206.61397 203.9309 L 206.61397 197.31567 L 213.2292 197.31567 L 213.2292 190.70044 L 206.61397 190.70044 L 206.61397 184.08715 L 199.99874 184.08715 L 193.38545 184.08715 z M 213.2292 197.31567 L 213.2292 203.9309 L 219.84249 203.9309 L 219.84249 197.31567 L 213.2292 197.31567 z M 219.84249 197.31567 L 226.45772 197.31567 L 226.45772 203.9309 L 226.45772 210.54419 L 226.45772 217.15942 L 233.07295 217.15942 L 239.68624 217.15942 L 239.68624 210.54419 L 233.07295 210.54419 L 233.07295 203.9309 L 233.07295 197.31567 L 233.07295 190.70044 L 233.07295 184.08715 L 226.45772 184.08715 L 226.45772 190.70044 L 219.84249 190.70044 L 219.84249 197.31567 z " /></g></svg>
